HIERARCHY
ROOT Hips
{
	OFFSET -278.121490 93.318451 465.951996
	CHANNELS 6 Xposition Yposition Zposition Zrotation Yrotation Xrotation 
	JOINT LeftUpLeg
	{
		OFFSET 0.103457 1.857822 10.548516
		CHANNELS 3 Zrotation Yrotation Xrotation
		JOINT LeftLeg
		{
			OFFSET 43.500008 -0.000031 0.000015
			CHANNELS 3 Zrotation Yrotation Xrotation
			JOINT LeftFoot
			{
				OFFSET 42.372192 0.000027 -0.000009
				CHANNELS 3 Zrotation Yrotation Xrotation
				JOINT LeftToe
				{
					OFFSET 17.299999 0.000000 -0.000004
					CHANNELS 3 Zrotation Yrotation Xrotation
					End Site
					{
						OFFSET 0.000000 0.000000 0.000000
					}
				}
			}
		}
	}
	JOINT RightUpLeg
	{
		OFFSET 0.103460 1.857822 -10.548513
		CHANNELS 3 Zrotation Yrotation Xrotation
		JOINT RightLeg
		{
			OFFSET 43.500038 -0.000015 -0.000002
			CHANNELS 3 Zrotation Yrotation Xrotation
			JOINT RightFoot
			{
				OFFSET 42.372269 -0.000019 0.000014
				CHANNELS 3 Zrotation Yrotation Xrotation
				JOINT RightToe
				{
					OFFSET 17.300005 -0.000001 0.000011
					CHANNELS 3 Zrotation Yrotation Xrotation
					End Site
					{
						OFFSET 0.000000 0.000000 0.000000
					}
				}
			}
		}
	}
	JOINT Spine
	{
		OFFSET 6.901966 -2.603743 -0.000003
		CHANNELS 3 Zrotation Yrotation Xrotation
		JOINT Spine1
		{
			OFFSET 12.588103 0.000012 0.000008
			CHANNELS 3 Zrotation Yrotation Xrotation
			JOINT Spine2
			{
				OFFSET 12.343199 0.000004 0.000007
				CHANNELS 3 Zrotation Yrotation Xrotation
				JOINT Neck
				{
					OFFSET 25.832901 -0.000008 -0.000001
					CHANNELS 3 Zrotation Yrotation Xrotation
					JOINT Head
					{
						OFFSET 11.766611 0.000029 -0.000004
						CHANNELS 3 Zrotation Yrotation Xrotation
						End Site
						{
							OFFSET 0.000000 0.000000 0.000000
						}
					}
				}
				JOINT LeftShoulder
				{
					OFFSET 19.745907 -1.480370 6.000077
					CHANNELS 3 Zrotation Yrotation Xrotation
					JOINT LeftArm
					{
						OFFSET 11.284128 -0.000004 -0.000015
						CHANNELS 3 Zrotation Yrotation Xrotation
						JOINT LeftForeArm
						{
							OFFSET 33.000065 0.000010 0.000016
							CHANNELS 3 Zrotation Yrotation Xrotation
							JOINT LeftHand
							{
								OFFSET 25.200001 0.000010 0.000006
								CHANNELS 3 Zrotation Yrotation Xrotation
								End Site
								{
									OFFSET 0.000000 0.000000 0.000000
								}
							}
						}
					}
				}
				JOINT RightShoulder
				{
					OFFSET 19.746094 -1.480385 -6.000086
					CHANNELS 3 Zrotation Yrotation Xrotation
					JOINT RightArm
					{
						OFFSET 11.284142 -0.000011 -0.000013
						CHANNELS 3 Zrotation Yrotation Xrotation
						JOINT RightForeArm
						{
							OFFSET 33.000092 0.000004 0.000015
							CHANNELS 3 Zrotation Yrotation Xrotation
							JOINT RightHand
							{
								OFFSET 25.199759 0.000141 0.000412
								CHANNELS 3 Zrotation Yrotation Xrotation
								End Site
								{
									OFFSET 0.000000 0.000000 0.000000
								}
							}
						}
					}
				}
			}
		}
	}
}
MOTION
Frames: 14
Frame Time: 0.033333
175.430099 89.644653 523.141724 86.475201 -2.809399 -8.885010 163.345408 -0.786499 -177.795316 -8.678601 -1.264324 -3.430605 62.630615 2.785569 0.515294 21.454553 0.003092 0.000000 -171.139446 -3.671601 178.966474 -17.061630 2.477996 -0.268370 89.921606 -0.363048 -2.976140 21.454560 -0.003109 -0.000017 7.336001 1.018354 -0.034371 4.659636 2.037197 -0.028057 4.341309 2.037128 -0.040363 10.443597 19.571980 4.420806 -27.670524 -7.853480 9.834418 -179.103297 -83.655815 -2.504588 3.834534 42.449691 68.827454 -78.561970 -7.556141 2.333709 -10.978405 -25.265375 -3.691891 156.141499 76.862202 -22.865127 9.438182 -31.388052 -71.844274 -88.665431 4.890860 -2.629313 -8.515100 49.889515 -3.715306 
173.795105 89.894867 523.278870 86.636298 -1.925362 -9.907959 164.293903 -0.327606 -178.711285 -8.439411 -1.949518 -3.665947 63.322656 3.272041 1.277448 21.454551 0.003092 0.000000 -170.654790 -2.535401 178.614187 -17.309643 2.163553 -0.472314 89.638344 -0.178822 -2.693615 21.454560 -0.003110 -0.000017 7.104272 0.613111 -0.161035 4.194347 1.231538 -0.299993 3.876181 1.229841 -0.307422 11.574932 18.903271 4.786829 -28.295022 -7.603985 9.924765 -176.686871 -83.093315 -4.937931 5.025889 40.784576 68.656563 -78.771663 -7.428714 2.333815 -11.434468 -24.534485 -2.062477 157.559378 76.559126 -21.438439 9.170045 -32.099178 -72.230917 -87.498917 5.391591 -2.612425 -7.828262 50.264243 -3.321953 
172.037506 90.159599 523.518677 86.389599 -0.867106 -10.847046 165.713066 0.423202 178.469442 -8.419220 -2.314901 -2.693643 65.048891 2.380402 0.844100 21.454551 0.003092 0.000000 -170.316450 -0.993897 178.832330 -18.593158 1.889385 -0.938692 89.130396 0.178897 -2.400295 21.454562 -0.003108 -0.000018 6.977590 0.122717 -0.233637 3.941826 0.253179 -0.463010 3.623733 0.250515 -0.464526 11.963840 17.921402 4.822321 -28.271246 -7.283003 9.683001 -175.484635 -83.087154 -6.153177 5.884088 39.814313 68.706273 -77.457494 -8.055602 2.321335 -13.042002 -23.237502 0.823644 158.890814 76.842804 -20.068919 9.287445 -33.988661 -72.721898 -85.411365 6.178278 -2.574867 -7.392121 50.454314 -3.008249 
170.511002 90.420280 523.663025 86.394810 -0.340796 -11.487059 166.841113 0.790696 176.543820 -8.277883 -2.517221 -1.940461 66.451983 1.746805 0.636942 21.454553 0.003093 0.000001 -170.420842 -0.218903 179.320975 -20.079839 1.397381 -1.418475 88.179006 0.550470 -2.089612 21.454557 -0.003108 -0.000017 6.848620 -0.234292 -0.260656 3.685484 -0.460324 -0.528548 3.367381 -0.463371 -0.525757 12.090505 17.176374 4.696473 -28.267602 -7.162136 9.427951 -176.309408 -83.798184 -5.328234 6.707313 39.795250 68.300348 -75.218162 -9.058930 2.296289 -14.915856 -21.373170 4.200895 159.737115 77.274923 -19.186524 10.228479 -36.085214 -73.185067 -83.400503 6.922644 -2.538205 -7.265204 49.369543 -3.622794 
169.028000 90.666496 523.781982 86.220073 -0.163246 -12.438965 168.202492 0.953706 174.291224 -8.044961 -2.524136 -1.120171 67.451526 1.294713 1.042881 21.454553 0.003092 0.000001 -170.420596 0.335100 179.416365 -21.611424 0.938169 -1.978459 87.015422 0.955654 -1.932995 21.454558 -0.003108 -0.000018 6.815108 -0.484323 -0.201394 3.619229 -0.962244 -0.417647 3.301102 -0.964613 -0.411824 11.820187 16.378551 4.454790 -28.369583 -7.689722 9.427568 -174.311086 -84.365110 -7.351423 6.935267 40.323931 66.917023 -72.304977 -10.319530 2.262190 -15.567608 -17.978835 7.110547 158.993690 77.920553 -19.910630 11.514302 -37.958479 -73.234989 -81.981572 7.411641 -2.510124 -8.833142 47.748384 -5.934388 
167.762100 90.795326 523.877930 86.018234 -0.093717 -13.208984 169.075022 1.122893 173.609940 -8.432205 -2.569789 -1.152365 68.459847 1.405837 1.328610 21.454551 0.003091 -0.000000 -170.795628 0.746795 179.954694 -23.755926 0.306221 -2.754905 86.189092 1.556269 -1.619461 21.454551 -0.003110 -0.000018 6.858335 -0.689755 -0.159899 3.706125 -1.374152 -0.341543 3.387949 -1.376053 -0.333233 11.220624 15.556272 4.210729 -28.717793 -8.242689 9.503678 -171.944780 -84.253450 -9.738350 6.090829 40.753358 64.723358 -68.573924 -11.699843 2.205248 -14.869817 -14.375574 8.927607 158.364411 78.287806 -20.531610 12.400240 -39.245816 -72.829501 -80.852282 7.805963 -2.488329 -11.667405 45.880211 -8.902381 
166.688202 90.781738 523.947815 85.821382 0.153370 -13.758056 169.455081 1.476898 173.604120 -9.375521 -2.627807 -1.484674 69.634434 1.653848 1.414758 21.454553 0.003092 -0.000000 -171.886792 1.217410 -179.162446 -27.067859 -0.520809 -3.513657 85.685905 2.168135 -1.265134 21.454560 -0.003108 -0.000017 6.944581 -0.947584 -0.133441 3.879261 -1.890262 -0.298231 3.560991 -1.891892 -0.286805 10.752454 14.766131 3.928530 -30.001391 -8.530175 9.488862 -171.325637 -83.768035 -10.360997 3.825411 41.348756 62.407616 -63.428989 -13.087950 2.097880 -13.879423 -13.740659 8.110177 157.928331 78.172731 -20.980412 12.912846 -40.044774 -72.266106 -79.682578 8.352163 -2.475585 -13.748706 44.303202 -11.013722 
165.784500 90.670723 523.983887 85.582339 0.531459 -13.925049 169.551332 1.938796 173.689443 -10.637606 -2.717459 -1.649382 70.872331 1.751226 1.415173 21.454550 0.003092 0.000000 -173.591375 1.708495 -178.399118 -31.435030 -1.167497 -3.825479 84.989062 2.418580 -1.172496 21.454562 -0.003109 -0.000018 7.076797 -1.262289 -0.144064 4.145422 -2.518713 -0.332862 3.826993 -2.520540 -0.317635 10.087409 14.213878 3.498863 -31.077712 -8.226092 9.037236 -172.506099 -83.333997 -9.166112 0.223851 42.254224 59.820798 -56.666641 -14.323424 1.931148 -12.145933 -14.725580 7.587963 157.245817 77.784421 -21.693719 13.166307 -40.839863 -71.700273 -78.048285 8.985259 -2.449065 -15.925102 43.065651 -11.980418 
165.088501 90.414619 524.101074 85.329635 1.165016 -14.185059 169.342232 2.583602 173.419418 -12.130646 -2.873148 -1.695736 72.098391 1.795951 1.515506 21.454551 0.003091 -0.000000 -176.406356 2.580993 -177.828019 -37.497824 -1.690808 -4.033534 84.044993 2.609587 -1.022369 21.454560 -0.003108 -0.000018 7.239009 -1.664147 -0.097301 4.470806 -3.323374 -0.258365 4.152123 -3.324738 -0.238266 9.470617 13.951760 2.974030 -32.234688 -7.495666 8.274712 -176.987441 -82.807123 -4.630139 -4.575062 43.089833 56.409259 -48.137462 -15.086051 1.697026 -10.898599 -15.032413 9.568885 157.394032 77.498721 -21.557964 12.920832 -41.766122 -70.960434 -76.111400 9.614118 -2.409828 -17.284946 41.110318 -12.114165 
164.552399 90.054916 524.263000 85.009525 1.940004 -14.583011 168.994426 3.290803 172.996889 -13.749086 -3.115366 -1.750713 73.357461 1.806008 1.486545 21.454551 0.003092 -0.000000 -179.971387 3.896701 -177.957478 -44.571561 -1.601900 -4.215932 82.456113 2.861736 -0.491565 21.454560 -0.003108 -0.000017 7.428686 -2.118843 -0.009967 4.849809 -4.235444 -0.108170 4.530763 -4.235884 -0.082541 8.854632 13.854250 2.422137 -33.175318 -6.792486 7.472673 177.608851 -81.971750 0.852967 -10.113707 43.594874 52.133799 -38.577021 -15.094124 1.427304 -8.160503 -13.610369 12.198440 158.194694 77.422107 -20.747813 12.335325 -42.609630 -69.926213 -74.321037 10.174771 -2.372826 -17.824593 37.121132 -12.933200 
164.152100 89.653816 524.492981 84.617704 2.780627 -15.021973 168.670033 4.028700 172.697003 -15.221498 -3.490167 -1.911627 74.583514 1.802757 1.148321 21.454553 0.003092 -0.000000 176.099270 5.487395 -177.008314 -51.919591 -2.182080 -4.617191 80.379490 3.618825 1.301100 21.454558 -0.003108 -0.000017 7.627311 -2.588318 0.053058 5.247347 -5.176392 -0.010687 4.927829 -5.176225 0.020665 8.526229 13.727792 2.052997 -33.837211 -6.328986 6.917875 173.199554 -80.851504 5.349027 -16.205911 43.429314 47.346393 -28.725850 -13.833414 1.130819 -3.976473 -11.308266 13.714635 156.942297 77.435282 -22.020376 12.109860 -43.516255 -68.281572 -73.042268 10.618471 -2.349822 -17.729412 32.068746 -15.043155 
163.818802 89.406029 524.726318 84.106034 3.243503 -15.485963 168.929976 4.483398 171.566880 -15.938696 -3.556961 -1.571822 75.524830 1.343190 0.417990 21.454551 0.003092 -0.000000 172.566464 6.878495 -176.101306 -58.269915 -2.580994 -4.682474 77.473675 4.501037 4.037204 21.454562 -0.003106 -0.000017 7.886511 -2.979728 0.111011 5.766032 -5.961277 0.074047 5.446050 -5.960581 0.110184 8.201711 13.642821 1.854274 -34.213206 -6.336482 6.774625 169.404783 -79.296577 9.250224 -21.817296 42.434227 41.490834 -20.072311 -11.665196 0.861648 0.801830 -8.427932 14.292480 155.729816 77.369596 -23.256278 11.613195 -44.386264 -65.804119 -72.454319 11.106982 -2.359075 -15.944911 26.553361 -17.304797 
163.598099 89.291939 524.841309 83.878220 3.338726 -15.662962 169.153118 4.540603 170.609916 -16.284438 -3.469282 -1.147191 76.258837 0.741729 -0.648473 21.454558 0.003092 0.000001 169.246883 7.647400 -174.789199 -63.429959 -2.935764 -4.046822 74.081024 5.164822 7.098375 21.454565 -0.003104 -0.000019 8.106086 -3.251712 0.083749 6.209485 -6.503217 -0.006707 5.889139 -6.503000 0.032742 7.933175 13.231557 1.786009 -34.411401 -6.319107 6.701570 166.116075 -78.215645 12.633885 -25.976468 41.737695 35.015398 -14.355384 -10.368894 0.724175 5.100394 -5.083897 16.766134 155.563583 77.337481 -23.426893 10.093301 -45.657926 -62.568788 -70.964709 11.860733 -2.349328 -12.108666 20.195396 -18.668355 
163.479797 89.355400 524.842407 84.036305 3.140251 -15.233035 169.295282 4.254805 170.139083 -16.118557 -3.379121 -0.649771 76.670301 0.042091 -1.926453 21.454553 0.003092 0.000001 166.475192 7.995803 -172.702467 -67.012154 -3.124211 -2.704419 70.397694 5.301184 9.502657 21.454555 -0.003109 -0.000019 8.274962 -3.395935 -0.077498 6.558873 -6.782037 -0.347664 6.238341 -6.783876 -0.306503 7.507709 12.225510 1.715088 -34.348106 -6.061058 6.425996 164.147559 -77.919228 14.648394 -28.838561 41.532881 29.705920 -12.316960 -10.430035 0.714935 7.724875 -3.147436 19.760343 155.896500 77.334694 -23.088688 7.592612 -47.452917 -58.514859 -67.981310 12.999231 -2.305817 -8.938917 12.911619 -19.958581 
